<svg id="Layer_1" data-name="Layer 1" xmlns="http://www.w3.org/2000/svg" viewBox="0 0 248.87 144.89">
    <defs>
        <style>.cls-1{fill:#39b54a;}</style>
    </defs>
    <path class="cls-1"
        d="M842.28,487.79q-6.72,0-6.72-6.25t6.72-6.25q6.71,0,6.71,6.25T842.28,487.79Zm3.7,25.47v104h-7.41v-104Z"
        transform="translate(-835.56 -475.29)" />
    <path d="M940.44,610.73v6.48H868.67l59.27-97.7h-53V513h66.21l-59.5,97.7Z"
        transform="translate(-835.56 -475.29)" />
    <path
        d="M1077.72,487.79q-6.72,0-6.71-6.25t6.71-6.25q6.72,0,6.72,6.25T1077.72,487.79Zm3.71,25.47v104H1074v-104Z"
        transform="translate(-835.56 -475.29)" />
    <path class="cls-1"
        d="M1004.82,583.69a19.22,19.22,0,0,1-3.78-9.27,18.83,18.83,0,0,1,37.1-6.22c1.49,7.43-.69,13.84-6.62,18.58-6.19,4.93-13.06,5.44-20.27,2.21a7.56,7.56,0,0,0-3.16-.69,3.06,3.06,0,0,0-3,2.31c-1.54,4.29-4.42,7.74-7.46,11-3.69,4-14.73,14.63-19.59,17.18a12.68,12.68,0,0,1-3.82,1.29c-1.9.31-2.88-.64-2.45-2.52a17.38,17.38,0,0,1,2.07-5.11c4.62-7.43,17.67-20.44,25.29-24.78C1001.14,586.59,1003.61,586.23,1004.82,583.69Zm15-26.52a15,15,0,1,0,14.91,15A15,15,0,0,0,1019.78,557.17Z"
        transform="translate(-835.56 -475.29)" />
    <path class="cls-1"
        d="M1066,567.15a66.77,66.77,0,0,1-26.87,16.37c.61-1.42,1.07-2.64,1.68-3.77a2.21,2.21,0,0,1,1.18-.8,64.34,64.34,0,0,0,17.19-10.18c.61-.51,1.21-1,1.82-1.57-22.42-21.52-61.57-22.07-84.82,0a60.37,60.37,0,0,0,15.13,10.06,28.84,28.84,0,0,0,4.86,2,4.93,4.93,0,0,1,4,4.23,5.23,5.23,0,0,1-1.84.1,66.3,66.3,0,0,1-27.09-16.36C994.78,542.08,1039.2,539.74,1066,567.15Z"
        transform="translate(-835.56 -475.29)" />
    <path class="cls-1"
        d="M1026.44,581.31c-1.17-2.46,1.08-9.9,3.56-11.77C1031.71,571.27,1029,580.2,1026.44,581.31Z"
        transform="translate(-835.56 -475.29)" />
    <path
        d="M1035.83,607.27a46.08,46.08,0,0,1-23,6.25c-7.33,0-12.13-.58-18.35-3.67h0l-5.21,5.27c7.46,4.07,13.57,4.87,22.63,4.87H1014q23.83,0,40-17.83v-12A52.86,52.86,0,0,1,1035.83,607.27Z"
        transform="translate(-835.56 -475.29)" />
    <path
        d="M1011.05,511q-23.62,0-39.82,16.09T955,565.24q0,22.11,16,38.54a17.28,17.28,0,0,0,2.78,2.44L978,601l-.6-.8-.4-.2.4.2c-.15-.13-.37-.33-.73-.7q-14.24-14.24-14.24-33.92t14.24-33.91q14.24-14.25,33.45-14.24a46,46,0,0,1,23,6.25,53.69,53.69,0,0,1,18.17,16.9V528.77Q1034.67,511,1011.05,511Z"
        transform="translate(-835.56 -475.29)" />
</svg>